<?xml version="1.0" encoding="UTF-8" standalone="no"?>
<svg
   xmlns:dc="http://purl.org/dc/elements/1.1/"
   xmlns:cc="http://creativecommons.org/ns#"
   xmlns:rdf="http://www.w3.org/1999/02/22-rdf-syntax-ns#"
   xmlns:svg="http://www.w3.org/2000/svg"
   xmlns="http://www.w3.org/2000/svg"
   viewBox="0 0 401.33334 401.33334"
   height="401.33334"
   width="401.33334"
   xml:space="preserve"
   id="svg2"
   version="1.1"><metadata
     id="metadata8"><rdf:RDF><cc:Work
         rdf:about=""><dc:format>image/svg+xml</dc:format><dc:type
           rdf:resource="http://purl.org/dc/dcmitype/StillImage" /></cc:Work></rdf:RDF></metadata><defs
     id="defs6" /><g
     transform="matrix(1.3333333,0,0,-1.3333333,0,401.33333)"
     id="g10"><g
       transform="scale(0.1)"
       id="g12"><path
         id="path14"
         style="fill:#ffffff;fill-opacity:1;fill-rule:nonzero;stroke:none"
         d="m 903.75,1731.25 c 0,-165.7 -201.48,-300 -450,-300 -248.52,0 -450,134.3 -450,300 0,165.7 201.48,300 450,300 248.52,0 450,-134.3 450,-300 z" /><path
         id="path16"
         style="fill:none;stroke:#000000;stroke-width:7.5;stroke-linecap:butt;stroke-linejoin:miter;stroke-miterlimit:4;stroke-dasharray:none;stroke-opacity:1"
         d="m 903.75,1731.25 c 0,-165.7 -201.48,-300 -450,-300 -248.52,0 -450,134.3 -450,300 0,165.7 201.48,300 450,300 248.52,0 450,-134.3 450,-300 z" /><g
         transform="scale(10)"
         id="g18"><text
           id="text22"
           style="font-variant:normal;font-weight:normal;font-size:9px;font-family:Arial;-inkscape-font-specification:ArialMT;writing-mode:lr-tb;fill:#000000;fill-opacity:1;fill-rule:nonzero;stroke:none"
           transform="matrix(1,0,0,-1,8.70117,169)"><tspan
             id="tspan20"
             y="0"
             x="0 6.0029998 11.007 14.004 18.504 20.529148 25.029148 30.033148 33.030148 37.530148 42.534149 47.538147 52.038147 57.069298 64.566299 69.570297">Service-consumer</tspan></text>
</g><path
         id="path24"
         style="fill:#ffffff;fill-opacity:1;fill-rule:nonzero;stroke:none"
         d="m 71.25,456.25 h 765 c 37.379,0 67.5,-30.121 67.5,-67.5 v -315 c 0,-37.3789 -30.121,-67.5 -67.5,-67.5 h -765 c -37.3789,0 -67.5,30.1211 -67.5,67.5 v 315 c 0,37.379 30.1211,67.5 67.5,67.5 z" /><path
         id="path26"
         style="fill:none;stroke:#000000;stroke-width:7.5;stroke-linecap:butt;stroke-linejoin:miter;stroke-miterlimit:4;stroke-dasharray:none;stroke-opacity:1"
         d="m 71.25,456.25 h 765 c 37.379,0 67.5,-30.121 67.5,-67.5 v -315 c 0,-37.3789 -30.121,-67.5 -67.5,-67.5 h -765 c -37.3789,0 -67.5,30.1211 -67.5,67.5 v 315 c 0,37.379 30.1211,67.5 67.5,67.5 z" /><g
         transform="scale(10)"
         id="g28"><text
           id="text32"
           style="font-variant:normal;font-weight:normal;font-size:9px;font-family:Arial;-inkscape-font-specification:ArialMT;writing-mode:lr-tb;fill:#000000;fill-opacity:1;fill-rule:nonzero;stroke:none"
           transform="matrix(1,0,0,-1,8.96484,19)"><tspan
             id="tspan30"
             y="0"
             x="0 6.0029998 11.007 14.004 18.504 20.529148 25.029148 32.535202 39.033203 41.031204 45.531204 50.031204 55.035202 59.535202 64.5392 67.563354">ServiceDiscovery</tspan></text>
</g><path
         id="path34"
         style="fill:#ffffff;fill-opacity:1;fill-rule:nonzero;stroke:none"
         d="m 3003.75,2706.25 c 0,-165.7 -201.48,-300 -450,-300 -248.52,0 -450,134.3 -450,300 0,165.7 201.48,300 450,300 248.52,0 450,-134.3 450,-300 z" /><path
         id="path36"
         style="fill:none;stroke:#000000;stroke-width:7.5;stroke-linecap:butt;stroke-linejoin:miter;stroke-miterlimit:4;stroke-dasharray:none;stroke-opacity:1"
         d="m 3003.75,2706.25 c 0,-165.7 -201.48,-300 -450,-300 -248.52,0 -450,134.3 -450,300 0,165.7 201.48,300 450,300 248.52,0 450,-134.3 450,-300 z" /><g
         transform="scale(10)"
         id="g38"><text
           id="text42"
           style="font-variant:normal;font-weight:normal;font-size:9px;font-family:Arial;-inkscape-font-specification:ArialMT;writing-mode:lr-tb;fill:#000000;fill-opacity:1;fill-rule:nonzero;stroke:none"
           transform="matrix(1,0,0,-1,216.437,266.5)"><tspan
             id="tspan40"
             y="0"
             x="0 6.0029998 11.007 14.004 18.504 20.529148 25.029148 30.033148 33.030148 38.034149 41.058296 46.062298 51.066296 56.070297 60.570297 65.574295 68.598442 73.602448">Service-producer_1</tspan></text>
</g><path
         id="path44"
         style="fill:#ffffff;fill-opacity:1;fill-rule:nonzero;stroke:none"
         d="m 3003.75,1731.25 c 0,-165.7 -201.48,-300 -450,-300 -248.52,0 -450,134.3 -450,300 0,165.7 201.48,300 450,300 248.52,0 450,-134.3 450,-300 z" /><path
         id="path46"
         style="fill:none;stroke:#000000;stroke-width:7.5;stroke-linecap:butt;stroke-linejoin:miter;stroke-miterlimit:4;stroke-dasharray:none;stroke-opacity:1"
         d="m 3003.75,1731.25 c 0,-165.7 -201.48,-300 -450,-300 -248.52,0 -450,134.3 -450,300 0,165.7 201.48,300 450,300 248.52,0 450,-134.3 450,-300 z" /><g
         transform="scale(10)"
         id="g48"><text
           id="text52"
           style="font-variant:normal;font-weight:normal;font-size:9px;font-family:Arial;-inkscape-font-specification:ArialMT;writing-mode:lr-tb;fill:#000000;fill-opacity:1;fill-rule:nonzero;stroke:none"
           transform="matrix(1,0,0,-1,216.437,169)"><tspan
             id="tspan50"
             y="0"
             x="0 6.0029998 11.007 14.004 18.504 20.529148 25.029148 30.033148 33.030148 38.034149 41.058296 46.062298 51.066296 56.070297 60.570297 65.574295 68.598442 73.602448">Service-producer_2</tspan></text>
</g><path
         id="path54"
         style="fill:#ffffff;fill-opacity:1;fill-rule:nonzero;stroke:none"
         d="m 3003.75,756.25 c 0,-165.699 -201.48,-300 -450,-300 -248.52,0 -450,134.301 -450,300 0,165.699 201.48,300 450,300 248.52,0 450,-134.301 450,-300 z" /><path
         id="path56"
         style="fill:none;stroke:#000000;stroke-width:7.5;stroke-linecap:butt;stroke-linejoin:miter;stroke-miterlimit:4;stroke-dasharray:none;stroke-opacity:1"
         d="m 3003.75,756.25 c 0,-165.699 -201.48,-300 -450,-300 -248.52,0 -450,134.301 -450,300 0,165.699 201.48,300 450,300 248.52,0 450,-134.301 450,-300 z" /><g
         transform="scale(10)"
         id="g58"><text
           id="text62"
           style="font-variant:normal;font-weight:normal;font-size:9px;font-family:Arial;-inkscape-font-specification:ArialMT;writing-mode:lr-tb;fill:#000000;fill-opacity:1;fill-rule:nonzero;stroke:none"
           transform="matrix(1,0,0,-1,216.437,71.5)"><tspan
             id="tspan60"
             y="0"
             x="0 6.0029998 11.007 14.004 18.504 20.529148 25.029148 30.033148 33.030148 38.034149 41.058296 46.062298 51.066296 56.070297 60.570297 65.574295 68.598442 73.602448">Service-producer_3</tspan></text>
</g><path
         id="path64"
         style="fill:none;stroke:#000000;stroke-width:7.5;stroke-linecap:butt;stroke-linejoin:miter;stroke-miterlimit:10;stroke-dasharray:none;stroke-opacity:1"
         d="M 206.25,1461.25 227.699,504.02" /><path
         id="path66"
         style="fill:#000000;fill-opacity:1;fill-rule:nonzero;stroke:none"
         d="m 228.52,464.648 -27.391,51.911 26.57,-12.539 25.93,13.64 z" /><path
         id="path68"
         style="fill:none;stroke:#000000;stroke-width:7.5;stroke-linecap:butt;stroke-linejoin:miter;stroke-miterlimit:10;stroke-dasharray:none;stroke-opacity:1"
         d="m 228.52,464.648 -27.391,51.911 26.57,-12.539 25.93,13.64 z" /><path
         id="path70"
         style="fill:none;stroke:#000000;stroke-width:7.5;stroke-linecap:butt;stroke-linejoin:miter;stroke-miterlimit:10;stroke-dasharray:none;stroke-opacity:1"
         d="M 678.75,456.25 V 1458.48" /><path
         id="path72"
         style="fill:#000000;fill-opacity:1;fill-rule:nonzero;stroke:none"
         d="m 678.75,1497.85 26.25,-52.5 -26.25,13.13 -26.25,-13.13 z" /><path
         id="path74"
         style="fill:none;stroke:#000000;stroke-width:7.5;stroke-linecap:butt;stroke-linejoin:miter;stroke-miterlimit:10;stroke-dasharray:none;stroke-opacity:1"
         d="m 678.75,1497.85 26.25,-52.5 -26.25,13.13 -26.25,-13.13 z" /><g
         transform="scale(10)"
         id="g76"><text
           id="text80"
           style="font-variant:normal;font-weight:normal;font-size:9px;font-family:Arial;-inkscape-font-specification:ArialMT;writing-mode:lr-tb;fill:#000000;fill-opacity:1;fill-rule:nonzero;stroke:none"
           transform="matrix(0,1,1,0,15,53.207)"><tspan
             id="tspan78"
             y="0"
             x="0 6.4980001 11.502 16.506001 21.51 26.514 31.014 36.026936 40.526936 45.530937 48.527939 53.027939 55.025936 59.525936 67.049957 74.546951 79.550957">Requestservicemap</tspan></text>
<text
           id="text84"
           style="font-variant:normal;font-weight:normal;font-size:9px;font-family:Arial;-inkscape-font-specification:ArialMT;writing-mode:lr-tb;fill:#000000;fill-opacity:1;fill-rule:nonzero;stroke:none"
           transform="matrix(0,-1,-1,0,82.5,125.781)"><tspan
             id="tspan82"
             y="0"
             x="0 6.0029998 11.007 14.004 18.504 20.529148 25.029148 30.033148 34.53315 37.035149 44.53215 49.536148">Services map</tspan></text>
</g><path
         id="path86"
         style="fill:#ffffff;fill-opacity:1;fill-rule:nonzero;stroke:none"
         d="m 866.25,1618.75 h 225 v 225 h -225 z" /><path
         id="path88"
         style="fill:none;stroke:#000000;stroke-width:7.5;stroke-linecap:butt;stroke-linejoin:miter;stroke-miterlimit:4;stroke-dasharray:none;stroke-opacity:1"
         d="m 866.25,1618.75 h 225 v 225 h -225 z" /><g
         transform="scale(10)"
         id="g90"><text
           id="text96"
           style="font-variant:normal;font-weight:normal;font-size:9px;font-family:Arial;-inkscape-font-specification:ArialMT;writing-mode:lr-tb;fill:#000000;fill-opacity:1;fill-rule:nonzero;stroke:none"
           transform="matrix(1,0,0,-1,92.7395,169)"><tspan
             id="tspan92"
             y="0"
             x="0 5.0040002">LB</tspan><tspan
             id="tspan94"
             y="29.25"
             x="44.991001 51.488998 56.493 61.497002 66.500999 71.504997 76.004997">Request</tspan></text>
</g><path
         id="path98"
         style="fill:none;stroke:#000000;stroke-width:7.5;stroke-linecap:butt;stroke-linejoin:miter;stroke-miterlimit:10;stroke-dasharray:none;stroke-opacity:1"
         d="m 1035,1618.75 1095.82,-86.56" /><path
         id="path100"
         style="fill:#000000;fill-opacity:1;fill-rule:nonzero;stroke:none"
         d="m 2170.12,1529.14 -54.46,-22.07 15.16,25.12 -11.02,27.22 z" /><path
         id="path102"
         style="fill:none;stroke:#000000;stroke-width:7.5;stroke-linecap:butt;stroke-linejoin:miter;stroke-miterlimit:10;stroke-dasharray:none;stroke-opacity:1"
         d="m 2170.12,1529.14 -54.46,-22.07 15.16,25.12 -11.02,27.22 z" /><path
         id="path104"
         style="fill:none;stroke:#000000;stroke-width:7.5;stroke-linecap:butt;stroke-linejoin:miter;stroke-miterlimit:10;stroke-dasharray:none;stroke-opacity:1"
         d="M 2235.51,1943.36 H 819.691" /><path
         id="path106"
         style="fill:#000000;fill-opacity:1;fill-rule:nonzero;stroke:none"
         d="m 780.309,1943.36 52.5,26.25 -13.118,-26.25 13.118,-26.25 z" /><path
         id="path108"
         style="fill:none;stroke:#000000;stroke-width:7.5;stroke-linecap:butt;stroke-linejoin:miter;stroke-miterlimit:10;stroke-dasharray:none;stroke-opacity:1"
         d="m 780.309,1943.36 52.5,26.25 -13.118,-26.25 13.118,-26.25 z" /><g
         transform="scale(10)"
         id="g110"><text
           id="text114"
           style="font-variant:normal;font-weight:normal;font-size:9px;font-family:Arial;-inkscape-font-specification:ArialMT;writing-mode:lr-tb;fill:#000000;fill-opacity:1;fill-rule:nonzero;stroke:none"
           transform="matrix(1,0,0,-1,137.974,198.25)"><tspan
             id="tspan112"
             y="0"
             x="0 6.4980001 11.502 16.002001 21.006001 26.01 31.014 35.514">Response</tspan></text>
</g></g></g></svg>