<?xml version="1.0" encoding="UTF-8" standalone="no"?>
<svg
   xmlns:dc="http://purl.org/dc/elements/1.1/"
   xmlns:cc="http://creativecommons.org/ns#"
   xmlns:rdf="http://www.w3.org/1999/02/22-rdf-syntax-ns#"
   xmlns:svg="http://www.w3.org/2000/svg"
   xmlns="http://www.w3.org/2000/svg"
   viewBox="0 0 521.33331 388"
   height="388"
   width="521.33331"
   xml:space="preserve"
   id="svg2"
   version="1.1"><metadata
     id="metadata8"><rdf:RDF><cc:Work
         rdf:about=""><dc:format>image/svg+xml</dc:format><dc:type
           rdf:resource="http://purl.org/dc/dcmitype/StillImage" /></cc:Work></rdf:RDF></metadata><defs
     id="defs6" /><g
     transform="matrix(1.3333333,0,0,-1.3333333,0,388)"
     id="g10"><g
       transform="scale(0.1)"
       id="g12"><path
         id="path14"
         style="fill:#ffffff;fill-opacity:1;fill-rule:nonzero;stroke:none"
         d="m 678.75,2025 c 0,-103.55 -151.09,-187.5 -337.5,-187.5 -186.41,0 -337.5,83.95 -337.5,187.5 0,103.55 151.09,187.5 337.5,187.5 186.41,0 337.5,-83.95 337.5,-187.5 z" /><path
         id="path16"
         style="fill:none;stroke:#000000;stroke-width:7.5;stroke-linecap:butt;stroke-linejoin:miter;stroke-miterlimit:4;stroke-dasharray:none;stroke-opacity:1"
         d="m 678.75,2025 c 0,-103.55 -151.09,-187.5 -337.5,-187.5 -186.41,0 -337.5,83.95 -337.5,187.5 0,103.55 151.09,187.5 337.5,187.5 186.41,0 337.5,-83.95 337.5,-187.5 z" /><g
         transform="scale(10)"
         id="g18"><text
           id="text22"
           style="font-variant:normal;font-size:9px;font-family:f-0;-inkscape-font-specification:f-0-0;writing-mode:lr-tb;fill:#000000;fill-opacity:1;fill-rule:nonzero;stroke:none"
           transform="matrix(1,0,0,-1,24.2402,198)"><tspan
             id="tspan20"
             y="0"
             x="0 6.4980001 10.998 16.002001">User</tspan></text>
</g><path
         id="path24"
         style="fill:#ffffff;fill-opacity:1;fill-rule:nonzero;stroke:none"
         d="m 678.75,1162.5 c 0,-124.26 -151.09,-225 -337.5,-225 -186.41,0 -337.5,100.74 -337.5,225 0,124.26 151.09,225 337.5,225 186.41,0 337.5,-100.74 337.5,-225 z" /><path
         id="path26"
         style="fill:none;stroke:#000000;stroke-width:7.5;stroke-linecap:butt;stroke-linejoin:miter;stroke-miterlimit:4;stroke-dasharray:none;stroke-opacity:1"
         d="m 678.75,1162.5 c 0,-124.26 -151.09,-225 -337.5,-225 -186.41,0 -337.5,100.74 -337.5,225 0,124.26 151.09,225 337.5,225 186.41,0 337.5,-100.74 337.5,-225 z" /><g
         transform="scale(10)"
         id="g28"><text
           id="text32"
           style="font-variant:normal;font-size:9px;font-family:f-0;-inkscape-font-specification:f-0-0;writing-mode:lr-tb;fill:#000000;fill-opacity:1;fill-rule:nonzero;stroke:none"
           transform="matrix(1,0,0,-1,1.62617,111.75)"><tspan
             id="tspan30"
             y="0"
             x="0 6.0029998 10.503 12.88789 17.89189 20.888889 25.892891 30.923828 32.921829 35.423828 39.923828 44.92783 48.185936 52.685936 54.683937 59.237892">External service</tspan></text>
</g><path
         id="path34"
         style="fill:#ffffff;fill-opacity:1;fill-rule:nonzero;stroke:none"
         d="m 1278.75,525 h 525 v 2062.5 h -525 z" /><path
         id="path36"
         style="fill:none;stroke:#000000;stroke-width:7.5;stroke-linecap:butt;stroke-linejoin:miter;stroke-miterlimit:4;stroke-dasharray:none;stroke-opacity:1"
         d="m 1278.75,525 h 525 v 2062.5 h -525 z" /><g
         transform="scale(10)"
         id="g38"><text
           id="text42"
           style="font-variant:normal;font-size:9px;font-family:f-0;-inkscape-font-specification:f-0-0;writing-mode:lr-tb;fill:#000000;fill-opacity:1;fill-rule:nonzero;stroke:none"
           transform="matrix(1,0,0,-1,127.421,151.5)"><tspan
             id="tspan40"
             y="0"
             x="0 6.0029998 8.9640627 13.724996 18.332809 22.832809 25.334808 29.834808 34.83881 38.087883 42.587883 44.585884 49.148823">Proxy service</tspan></text>
</g><path
         id="path44"
         style="fill:#ffffff;fill-opacity:1;fill-rule:nonzero;stroke:none"
         d="m 3828.75,2568.75 c 0,-186.41 -251.84,-337.5 -562.5,-337.5 -310.66,0 -562.5,151.09 -562.5,337.5 0,186.41 251.84,337.5 562.5,337.5 310.66,0 562.5,-151.09 562.5,-337.5 z" /><path
         id="path46"
         style="fill:none;stroke:#000000;stroke-width:7.5;stroke-linecap:butt;stroke-linejoin:miter;stroke-miterlimit:4;stroke-dasharray:none;stroke-opacity:1"
         d="m 3828.75,2568.75 c 0,-186.41 -251.84,-337.5 -562.5,-337.5 -310.66,0 -562.5,151.09 -562.5,337.5 0,186.41 251.84,337.5 562.5,337.5 310.66,0 562.5,-151.09 562.5,-337.5 z" /><g
         transform="scale(10)"
         id="g48"><text
           id="text52"
           style="font-variant:normal;font-size:9px;font-family:f-0;-inkscape-font-specification:f-0-0;writing-mode:lr-tb;fill:#000000;fill-opacity:1;fill-rule:nonzero;stroke:none"
           transform="matrix(1,0,0,-1,273.352,252.75)"><tspan
             id="tspan50"
             y="0"
             x="0 2.5020001 7.506 9.8820238 14.886024 17.883024 22.887024 27.917952 29.915953 32.417953 36.917953 41.921951 45.180061 49.680061 51.678059 56.232014 61.236015 63.738014 65.736015 70.740013 75.212868 77.714867 82.718864 87.72287 92.267937 97.271935 102.27593">Internal service instance_1</tspan></text>
</g><path
         id="path54"
         style="fill:#ffffff;fill-opacity:1;fill-rule:nonzero;stroke:none"
         d="m 3903.75,1518.75 c 0,-186.41 -268.63,-337.5 -600,-337.5 -331.37,0 -600,151.09 -600,337.5 0,186.41 268.63,337.5 600,337.5 331.37,0 600,-151.09 600,-337.5 z" /><path
         id="path56"
         style="fill:none;stroke:#000000;stroke-width:7.5;stroke-linecap:butt;stroke-linejoin:miter;stroke-miterlimit:4;stroke-dasharray:none;stroke-opacity:1"
         d="m 3903.75,1518.75 c 0,-186.41 -268.63,-337.5 -600,-337.5 -331.37,0 -600,151.09 -600,337.5 0,186.41 268.63,337.5 600,337.5 331.37,0 600,-151.09 600,-337.5 z" /><g
         transform="scale(10)"
         id="g58"><text
           id="text62"
           style="font-variant:normal;font-size:9px;font-family:f-0;-inkscape-font-specification:f-0-0;writing-mode:lr-tb;fill:#000000;fill-opacity:1;fill-rule:nonzero;stroke:none"
           transform="matrix(1,0,0,-1,277.102,147.75)"><tspan
             id="tspan60"
             y="0"
             x="0 2.5020001 7.506 9.8820238 14.886024 17.883024 22.887024 27.917952 29.915953 32.417953 36.917953 41.921951 45.180061 49.680061 51.678059 56.232014 61.236015 63.738014 65.736015 70.740013 75.212868 77.714867 82.718864 87.72287 92.267937 97.271935 102.27593">Internal service instance_2</tspan></text>
</g><path
         id="path64"
         style="fill:#ffffff;fill-opacity:1;fill-rule:nonzero;stroke:none"
         d="m 3828.75,468.75 c 0,-186.41 -251.84,-337.5 -562.5,-337.5 -310.66,0 -562.5,151.09 -562.5,337.5 0,186.41 251.84,337.5 562.5,337.5 310.66,0 562.5,-151.09 562.5,-337.5 z" /><path
         id="path66"
         style="fill:none;stroke:#000000;stroke-width:7.5;stroke-linecap:butt;stroke-linejoin:miter;stroke-miterlimit:4;stroke-dasharray:none;stroke-opacity:1"
         d="m 3828.75,468.75 c 0,-186.41 -251.84,-337.5 -562.5,-337.5 -310.66,0 -562.5,151.09 -562.5,337.5 0,186.41 251.84,337.5 562.5,337.5 310.66,0 562.5,-151.09 562.5,-337.5 z" /><g
         transform="scale(10)"
         id="g68"><text
           id="text72"
           style="font-variant:normal;font-size:9px;font-family:f-0;-inkscape-font-specification:f-0-0;writing-mode:lr-tb;fill:#000000;fill-opacity:1;fill-rule:nonzero;stroke:none"
           transform="matrix(1,0,0,-1,273.352,42.75)"><tspan
             id="tspan70"
             y="0"
             x="0 2.5020001 7.506 9.8820238 14.886024 17.883024 22.887024 27.917952 29.915953 32.417953 36.917953 41.921951 45.180061 49.680061 51.678059 56.232014 61.236015 63.738014 65.736015 70.740013 75.212868 77.714867 82.718864 87.72287 92.267937 97.271935 102.27593">Internal service instance_3</tspan></text>
</g><path
         id="path74"
         style="fill:none;stroke:#000000;stroke-width:7.5;stroke-linecap:butt;stroke-linejoin:miter;stroke-miterlimit:10;stroke-dasharray:none;stroke-opacity:1"
         d="m 678.75,2025 546.45,142.11" /><path
         id="path76"
         style="fill:#000000;fill-opacity:1;fill-rule:nonzero;stroke:none"
         d="m 1263.28,2177.03 -44.22,-38.63 6.14,28.71 -19.34,22.07 z" /><path
         id="path78"
         style="fill:none;stroke:#000000;stroke-width:7.5;stroke-linecap:butt;stroke-linejoin:miter;stroke-miterlimit:10;stroke-dasharray:none;stroke-opacity:1"
         d="m 1263.28,2177.03 -44.22,-38.63 6.14,28.71 -19.34,22.07 z" /><path
         id="path80"
         style="fill:none;stroke:#000000;stroke-width:7.5;stroke-linecap:butt;stroke-linejoin:miter;stroke-miterlimit:10;stroke-dasharray:none;stroke-opacity:1"
         d="M 580.781,1004.02 1232.54,834.059" /><path
         id="path82"
         style="fill:#000000;fill-opacity:1;fill-rule:nonzero;stroke:none"
         d="m 1270.66,824.102 -57.46,-12.153 19.34,22.11 -6.06,28.75 z" /><path
         id="path84"
         style="fill:none;stroke:#000000;stroke-width:7.5;stroke-linecap:butt;stroke-linejoin:miter;stroke-miterlimit:10;stroke-dasharray:none;stroke-opacity:1"
         d="m 1270.66,824.102 -57.46,-12.153 19.34,22.11 -6.06,28.75 z" /><path
         id="path86"
         style="fill:none;stroke:#000000;stroke-width:7.5;stroke-linecap:butt;stroke-linejoin:miter;stroke-miterlimit:10;stroke-dasharray:none;stroke-opacity:1"
         d="M 1286.09,1354.14 725.391,1229.18" /><path
         id="path88"
         style="fill:#000000;fill-opacity:1;fill-rule:nonzero;stroke:none"
         d="m 686.91,1220.55 45.551,37.07 -7.07,-28.44 18.519,-22.81 z" /><path
         id="path90"
         style="fill:none;stroke:#000000;stroke-width:7.5;stroke-linecap:butt;stroke-linejoin:miter;stroke-miterlimit:10;stroke-dasharray:none;stroke-opacity:1"
         d="m 686.91,1220.55 45.551,37.07 -7.07,-28.44 18.519,-22.81 z" /><path
         id="path92"
         style="fill:none;stroke:#000000;stroke-width:7.5;stroke-linecap:butt;stroke-linejoin:miter;stroke-miterlimit:10;stroke-dasharray:none;stroke-opacity:1"
         d="M 1286.09,1752.15 627.07,1883.32" /><path
         id="path94"
         style="fill:#000000;fill-opacity:1;fill-rule:nonzero;stroke:none"
         d="m 588.52,1890.98 56.558,15.5 -18.008,-23.16 7.809,-28.36 z" /><path
         id="path96"
         style="fill:none;stroke:#000000;stroke-width:7.5;stroke-linecap:butt;stroke-linejoin:miter;stroke-miterlimit:10;stroke-dasharray:none;stroke-opacity:1"
         d="m 588.52,1890.98 56.558,15.5 -18.008,-23.16 7.809,-28.36 z" /><path
         id="path98"
         style="fill:none;stroke:#000000;stroke-width:7.5;stroke-linecap:butt;stroke-linejoin:miter;stroke-miterlimit:10;stroke-dasharray:none;stroke-opacity:1"
         d="m 1811.09,2247.15 847.74,305.39" /><path
         id="path100"
         style="fill:#000000;fill-opacity:1;fill-rule:nonzero;stroke:none"
         d="m 2695.86,2565.9 -40.47,-42.46 3.44,29.1 -21.21,20.27 z" /><path
         id="path102"
         style="fill:none;stroke:#000000;stroke-width:7.5;stroke-linecap:butt;stroke-linejoin:miter;stroke-miterlimit:10;stroke-dasharray:none;stroke-opacity:1"
         d="m 2695.86,2565.9 -40.47,-42.46 3.44,29.1 -21.21,20.27 z" /><path
         id="path104"
         style="fill:none;stroke:#000000;stroke-width:7.5;stroke-linecap:butt;stroke-linejoin:miter;stroke-miterlimit:10;stroke-dasharray:none;stroke-opacity:1"
         d="M 2869.14,2329.73 1850.16,2083.12" /><path
         id="path106"
         style="fill:#000000;fill-opacity:1;fill-rule:nonzero;stroke:none"
         d="m 1811.91,2073.83 44.85,37.89 -6.6,-28.6 18.9,-22.42 z" /><path
         id="path108"
         style="fill:none;stroke:#000000;stroke-width:7.5;stroke-linecap:butt;stroke-linejoin:miter;stroke-miterlimit:10;stroke-dasharray:none;stroke-opacity:1"
         d="m 1811.91,2073.83 44.85,37.89 -6.6,-28.6 18.9,-22.42 z" /><path
         id="path110"
         style="fill:none;stroke:#000000;stroke-width:7.5;stroke-linecap:butt;stroke-linejoin:miter;stroke-miterlimit:10;stroke-dasharray:22.5, 22.5;stroke-dashoffset:0;stroke-opacity:1"
         d="m 3190.86,2231.25 c -374.73,-400 -624.61,-537.5 -749.61,-412.5 -125,125 -324.53,151.56 -598.63,79.65" /><path
         id="path112"
         style="fill:#000000;fill-opacity:1;fill-rule:nonzero;stroke:none"
         d="m 1804.49,1888.36 44.1,38.75 -5.97,-28.71 19.33,-22.11 z" /><path
         id="path114"
         style="fill:none;stroke:#000000;stroke-width:7.5;stroke-linecap:butt;stroke-linejoin:miter;stroke-miterlimit:10;stroke-dasharray:none;stroke-opacity:1"
         d="m 1804.49,1888.36 44.1,38.75 -5.97,-28.71 19.33,-22.11 z" /><path
         id="path116"
         style="fill:none;stroke:#000000;stroke-width:7.5;stroke-linecap:butt;stroke-linejoin:miter;stroke-miterlimit:10;stroke-dasharray:22.5, 22.5;stroke-dashoffset:0;stroke-opacity:1"
         d="m 3303.75,1181.25 c -550,-75 -887.5,-50 -1012.5,75 -125,125 -267.03,166.48 -426.09,124.49" /><path
         id="path118"
         style="fill:#000000;fill-opacity:1;fill-rule:nonzero;stroke:none"
         d="m 1827.07,1370.7 44.1,38.79 -6.01,-28.75 19.37,-22.03 z" /><path
         id="path120"
         style="fill:none;stroke:#000000;stroke-width:7.5;stroke-linecap:butt;stroke-linejoin:miter;stroke-miterlimit:10;stroke-dasharray:none;stroke-opacity:1"
         d="m 1827.07,1370.7 44.1,38.79 -6.01,-28.75 19.37,-22.03 z" /><path
         id="path122"
         style="fill:none;stroke:#000000;stroke-width:7.5;stroke-linecap:butt;stroke-linejoin:miter;stroke-miterlimit:10;stroke-dasharray:22.5, 22.5;stroke-dashoffset:0;stroke-opacity:1"
         d="m 3266.25,131.25 c -575,0 -900,50 -975,150 -75,100 -228.52,319.371 -460.51,658.129" /><path
         id="path124"
         style="fill:#000000;fill-opacity:1;fill-rule:nonzero;stroke:none"
         d="m 1808.48,971.84 51.29,-28.481 -29.03,-3.98 -14.26,-25.75 z" /><path
         id="path126"
         style="fill:none;stroke:#000000;stroke-width:7.5;stroke-linecap:butt;stroke-linejoin:miter;stroke-miterlimit:10;stroke-dasharray:none;stroke-opacity:1"
         d="m 1808.48,971.84 51.29,-28.481 -29.03,-3.98 -14.26,-25.75 z" /><g
         transform="scale(10)"
         id="g128"><text
           id="text148"
           style="font-variant:normal;font-size:9px;font-family:f-0;-inkscape-font-specification:f-0-0;writing-mode:lr-tb;fill:#000000;fill-opacity:1;fill-rule:nonzero;stroke:none"
           transform="matrix(1,0,0,-1,77.8098,227.25)"><tspan
             id="tspan130"
             y="0"
             x="0 6.4171896 11.421189 16.42519 21.42919 26.433189 30.888279">Request</tspan><tspan
             id="tspan132"
             y="54.75"
             x="-14.7832 -8.3660107 -3.3890553 1.1109449 6.1149449 11.146099 16.150099 20.650099">Resonpse</tspan><tspan
             id="tspan134"
             y="150"
             x="-8.9445295 -2.94153 2.7464862 5.248486 7.7504864 12.304301 17.3083 19.306301">API call</tspan><tspan
             id="tspan136"
             y="91.5"
             x="-7.27461 -0.85742056 4.119535 8.6195345 13.623535 18.627535 23.631535 28.131535">Response</tspan><tspan
             id="tspan138"
             y="-35.25"
             x="135.0004 141.41757 146.42159 151.42558 156.42958 161.43358 165.88869">Request</tspan><tspan
             id="tspan140"
             y="17.25"
             x="142.72578 149.14297 154.11992 158.61992 163.62392 168.62791 173.63191 178.13191">Response</tspan><tspan
             id="tspan142"
             y="62.25"
             x="131.58708 138.00427 143.00827 148.03941 150.03741 154.51051 156.94957 159.91949 164.82457 167.27261 169.27061 174.27461">Registration</tspan><tspan
             id="tspan144"
             y="129"
             x="150.33708 156.75427 161.75827 166.78941 168.78741 173.26051 175.69957 178.66949 183.57457 186.02261 188.02061 193.02461">Registration</tspan><tspan
             id="tspan146"
             y="225"
             x="127.83708 134.25427 139.25827 144.28941 146.28741 150.76051 153.19957 156.16949 161.07457 163.52261 165.52061 170.52461">Registration</tspan></text>
</g></g></g></svg>